<svg xmlns="http://www.w3.org/2000/svg" viewBox="0 0 133.14 133.14"><defs><style>.cls-1{fill:#2f3a97;}.cls-2{fill:#fff;}.cls-3{fill:#38b6e9;}.cls-4{fill:#52c9ef;}.cls-5{fill:#0288c1;}.cls-6{fill:#0787c0;}</style></defs><g id="Layer_2" data-name="Layer 2"><g id="Layer_1-2" data-name="Layer 1"><circle class="cls-1" cx="66.57" cy="66.57" r="66.57"/><path class="cls-2" d="M40.2,58.25,10.77,65.07H61.71Zm-.13,5.59H37.15A3.05,3.05,0,0,1,37,63a3.42,3.42,0,0,1,3-3.41Zm.76,0V59.58A3.42,3.42,0,0,1,43.88,63a3.48,3.48,0,0,1-.11.85Z"/><polygon class="cls-2" points="62.69 57.4 57.56 57.4 79.9 65.08 85.03 65.08 62.69 57.4"/><path class="cls-2" d="M93.34,70.08h-1.5a2.87,2.87,0,0,0-.71-.41,5,5,0,0,0-2-.37,6,6,0,0,0-2.1.35l-.11,0L82.6,68.22l-9.12-3.13L65.66,62.4H71l13.65,4.7Z"/><polygon class="cls-2" points="73.28 65.08 78.58 65.08 56.24 57.4 50.94 57.4 73.28 65.08"/><polygon class="cls-2" points="49.63 57.4 43.4 57.4 66.7 65.08 71.97 65.08 49.63 57.4"/><polygon class="cls-2" points="10.55 66.5 9.82 69.43 14.71 69.43 12.24 79.56 16.76 79.56 19.23 69.43 24.14 69.43 24.87 66.5 10.55 66.5"/><path class="cls-2" d="M34.74,74.3H27L25.12,77H35.26Zm.62-7.8H30.9L20.65,79.56h4.79L27.29,77l2-2.71,3.07-4.24,1.07,4.24L34.07,77l.65,2.55h4.52Z"/><polygon class="cls-2" points="58.4 66.5 51.13 74.07 47.39 66.5 43.71 66.5 40.52 79.56 44.67 79.56 46.35 72.66 49.26 78.27 51.25 78.27 56.57 72.7 54.92 79.56 59.11 79.56 62.28 66.5 58.4 66.5"/><path class="cls-2" d="M73.53,76.39a5.83,5.83,0,0,1-2.07.37,5.31,5.31,0,0,1-2.09-.37,3,3,0,0,1-1.34-1,2.56,2.56,0,0,1-.48-1.54,4.33,4.33,0,0,1,.38-1.8,4.09,4.09,0,0,1,1-1.44,4.77,4.77,0,0,1,1.64-1,6.36,6.36,0,0,1,2.11-.33,5.16,5.16,0,0,1,2.09.39,3.62,3.62,0,0,1,1.45,1.14L79.5,68.7a5.16,5.16,0,0,0-2.56-1.83A11.31,11.31,0,0,0,73,66.24a13.41,13.41,0,0,0-4.08.58,9.55,9.55,0,0,0-3.16,1.63,7.43,7.43,0,0,0-2.06,2.49A6.74,6.74,0,0,0,63,74.07a4.84,4.84,0,0,0,1,3,6.39,6.39,0,0,0,2.81,2,11.4,11.4,0,0,0,4.27.73,12.81,12.81,0,0,0,3.88-.55A7.57,7.57,0,0,0,78,77.39l-2.67-2.14a5.42,5.42,0,0,1-1.84,1.14Z"/><path class="cls-2" d="M96.47,69a6.21,6.21,0,0,0-2.75-2,11.31,11.31,0,0,0-4.23-.73,13.52,13.52,0,0,0-4,.58,7.08,7.08,0,0,0-.77.28,8.55,8.55,0,0,0-2.07,1.12,3.55,3.55,0,0,0-.31.23,7.5,7.5,0,0,0-2.05,2.49,6.73,6.73,0,0,0-.74,3.14,4.83,4.83,0,0,0,1,3,6.14,6.14,0,0,0,2.74,2,11,11,0,0,0,4.23.73,13.26,13.26,0,0,0,4-.58,9.75,9.75,0,0,0,3.18-1.63,7.35,7.35,0,0,0,2-2.48A6.87,6.87,0,0,0,97.43,72,4.92,4.92,0,0,0,96.47,69Zm-3.94,5a4.07,4.07,0,0,1-1,1.47,4.86,4.86,0,0,1-1.59,1,5.76,5.76,0,0,1-2.11.35,5.1,5.1,0,0,1-2-.36,2.82,2.82,0,0,1-1.28-1,2.64,2.64,0,0,1-.45-1.52,4.3,4.3,0,0,1,.35-1.74,4,4,0,0,1,1-1.46,4.49,4.49,0,0,1,1.47-1l.11,0a6,6,0,0,1,2.1-.35,5,5,0,0,1,2,.37,2.87,2.87,0,0,1,.71.41,2.79,2.79,0,0,1,.58.61,2.63,2.63,0,0,1,.44,1.52A4.64,4.64,0,0,1,92.53,74Z"/><path class="cls-3" d="M110.72,78.52c-1.84-6.41-1.08-10.78,0-13.63,1.36-3.57,3.36-5.09,5-9.73a27.61,27.61,0,0,0,1.57-9.27,24.44,24.44,0,0,1,5.94,13.81c.94,11.12-6.49,18.65-7.6,19.74.21-1.78.42-3.61.65-5.65a13,13,0,0,0,0-3.1,11.59,11.59,0,0,0-.6-2.46,20.7,20.7,0,0,0-3.06,4.45,21.07,21.07,0,0,0-2,5.84Z"/><path class="cls-4" d="M110.69,78.71c-1.78-1.5-8-7.11-8.83-15.89a23,23,0,0,1,2.38-12.91c.88-1.61,2.11-3.24,3.82-6.71.84-1.72,1.59-3.48,2.28-5.26a1.18,1.18,0,0,1,.24-.44c.6-.65,1.26.68,1.47,1.09a8.89,8.89,0,0,1,.83,3,23.42,23.42,0,0,1,.17,3c0,1-.15,1.92-.15,2.88-.85,8.31-4.84,10.65-4.59,18.09a54.54,54.54,0,0,0,.94,7.22,59.08,59.08,0,0,0,1.44,5.95Z"/><path class="cls-5" d="M110.53,78.34a16.69,16.69,0,0,1-6.24-9.24c-1.93-7.81,2.89-13.93,3.48-14.65a27.64,27.64,0,0,0,2.76,23.89Z"/><path class="cls-6" d="M117.62,60.84a22.11,22.11,0,0,1-3,5.9c-1.38,1.92-2.24,2.47-3,4a11.24,11.24,0,0,0-.84,7.26l.17,0a26.54,26.54,0,0,1,.75-2.57,24.67,24.67,0,0,1,4.09-7.27,10.92,10.92,0,0,1,.52,4.47c0,1.86-.25,2.69-.45,5.49,0,.39,0,.75-.06,1.09a20.67,20.67,0,0,0,1.88-18.44Z"/></g></g></svg>